<svg xmlns="http://www.w3.org/2000/svg" width="440" height="200" viewBox="0 0 440 200" role="img">
  
  <defs>
    <linearGradient id="bg" x1="0" y1="0" x2="1" y2="1">
      <stop offset="0%" stop-color="#0d1117"/>
      <stop offset="55%" stop-color="#0f141c"/>
      <stop offset="100%" stop-color="#131920"/>
    </linearGradient>
    <linearGradient id="accent" x1="0" y1="0" x2="1" y2="0">
      <stop offset="0%" stop-color="#00FF41"/>
      <stop offset="100%" stop-color="#00c530"/>
    </linearGradient>
    <radialGradient id="glow" cx="85%" cy="8%" r="55%">
      <stop offset="0%" stop-color="#00FF41" stop-opacity="0.16"/>
      <stop offset="100%" stop-color="#00FF41" stop-opacity="0"/>
    </radialGradient>
    <filter id="blur" x="-20%" y="-20%" width="140%" height="140%">
      <feGaussianBlur stdDeviation="2.5"/>
    </filter>
  </defs>
  
  <rect x="0.5" y="0.5" width="439" height="199" rx="14" fill="url(#bg)"/>
  <rect x="0.5" y="0.5" width="439" height="199" rx="14" fill="url(#glow)"/>
  <rect x="0.5" y="0.5" width="439" height="199" rx="14" fill="none" stroke="#21262d"/>
  <rect x="0.5" y="0.5" width="439" height="199" rx="14" fill="none" stroke="#00FF41" stroke-opacity="0.28" stroke-width="1.2"/>
  
  <pattern id="scan" width="3" height="3" patternUnits="userSpaceOnUse">
    <rect width="3" height="1.5" fill="#000" fill-opacity="0.10"/>
  </pattern>
  <rect x="0" y="0" width="440" height="200" fill="url(#scan)"/>
  
  <path d="M 0 14 L 0 0 L 14 0" fill="none" stroke="#00FF41" stroke-opacity="0.5" stroke-width="1.6"/>
  <path d="M 426 0 L 440 0 L 440 14" fill="none" stroke="#00FF41" stroke-opacity="0.5" stroke-width="1.6"/>
  <path d="M 440 186 L 440 200 L 426 200" fill="none" stroke="#00FF41" stroke-opacity="0.5" stroke-width="1.6"/>
  <path d="M 14 200 L 0 200 L 0 186" fill="none" stroke="#00FF41" stroke-opacity="0.5" stroke-width="1.6"/>
      <text x="15" y="48" font-family="monospace" font-size="8" fill="#00FF41" fill-opacity="0.06">0</text>    <text x="15" y="62" font-family="monospace" font-size="8" fill="#00FF41" fill-opacity="0.1">1</text>    <text x="15" y="76" font-family="monospace" font-size="8" fill="#00FF41" fill-opacity="0.14">0</text>    <text x="15" y="90" font-family="monospace" font-size="8" fill="#00FF41" fill-opacity="0.18">1</text>
      <text x="425" y="90" font-family="monospace" font-size="8" fill="#00FF41" fill-opacity="0.06">1</text>    <text x="425" y="104" font-family="monospace" font-size="8" fill="#00FF41" fill-opacity="0.1">0</text>    <text x="425" y="118" font-family="monospace" font-size="8" fill="#00FF41" fill-opacity="0.14">1</text>    <text x="425" y="132" font-family="monospace" font-size="8" fill="#00FF41" fill-opacity="0.18">0</text>
  
  <text x="28" y="38" font-family="'Segoe UI', monospace" font-size="15" font-weight="700" fill="#f0f6fc">LANG_MATRIX</text>
  <text x="412" y="38" text-anchor="end" font-family="'Segoe UI', monospace" font-size="9.5" letter-spacing="1.5" fill="#8b949e">by repo count</text>
  
  <circle cx="416" cy="46" r="3.2" fill="#00FF41">
    <animate attributeName="opacity" values="1;0.25;1" dur="2.2s" repeatCount="indefinite"/>
  </circle>
  <circle cx="416" cy="46" r="7" fill="none" stroke="#00FF41" stroke-opacity="0.35">
    <animate attributeName="r" values="4;10" dur="2.2s" repeatCount="indefinite"/>
    <animate attributeName="opacity" values="0.5;0" dur="2.2s" repeatCount="indefinite"/>
  </circle>
  
    <g>
      <text x="28" y="48" font-family="'Segoe UI', monospace" font-size="11" fill="#c9d1d9">
        <tspan fill="#f1e05a">●</tspan>  JavaScript
      </text>
      <text x="412" y="48" text-anchor="end" font-family="'Segoe UI', monospace" font-size="11" font-weight="700" fill="#f0f6fc">36%</text>
      <rect x="28" y="56" width="384" height="5" rx="2.5" fill="#0d1117" stroke="#21262d" stroke-width="0.5"/>
      <rect x="28" y="56" width="372" height="5" rx="2.5" fill="#f1e05a"/>
    </g>
    <g>
      <text x="28" y="74" font-family="'Segoe UI', monospace" font-size="11" fill="#c9d1d9">
        <tspan fill="#3572A5">●</tspan>  Python
      </text>
      <text x="412" y="74" text-anchor="end" font-family="'Segoe UI', monospace" font-size="11" font-weight="700" fill="#f0f6fc">20%</text>
      <rect x="28" y="82" width="384" height="5" rx="2.5" fill="#0d1117" stroke="#21262d" stroke-width="0.5"/>
      <rect x="28" y="82" width="207" height="5" rx="2.5" fill="#3572A5"/>
    </g>
    <g>
      <text x="28" y="100" font-family="'Segoe UI', monospace" font-size="11" fill="#c9d1d9">
        <tspan fill="#3178c6">●</tspan>  TypeScript
      </text>
      <text x="412" y="100" text-anchor="end" font-family="'Segoe UI', monospace" font-size="11" font-weight="700" fill="#f0f6fc">18%</text>
      <rect x="28" y="108" width="384" height="5" rx="2.5" fill="#0d1117" stroke="#21262d" stroke-width="0.5"/>
      <rect x="28" y="108" width="186" height="5" rx="2.5" fill="#3178c6"/>
    </g>
    <g>
      <text x="28" y="126" font-family="'Segoe UI', monospace" font-size="11" fill="#c9d1d9">
        <tspan fill="#e34c26">●</tspan>  HTML
      </text>
      <text x="412" y="126" text-anchor="end" font-family="'Segoe UI', monospace" font-size="11" font-weight="700" fill="#f0f6fc">8%</text>
      <rect x="28" y="134" width="384" height="5" rx="2.5" fill="#0d1117" stroke="#21262d" stroke-width="0.5"/>
      <rect x="28" y="134" width="83" height="5" rx="2.5" fill="#e34c26"/>
    </g>
    <g>
      <text x="28" y="152" font-family="'Segoe UI', monospace" font-size="11" fill="#c9d1d9">
        <tspan fill="#0076a8">●</tspan>  MATLAB
      </text>
      <text x="412" y="152" text-anchor="end" font-family="'Segoe UI', monospace" font-size="11" font-weight="700" fill="#f0f6fc">6%</text>
      <rect x="28" y="160" width="384" height="5" rx="2.5" fill="#0d1117" stroke="#21262d" stroke-width="0.5"/>
      <rect x="28" y="160" width="62" height="5" rx="2.5" fill="#0076a8"/>
    </g>
</svg>
