<svg xmlns="http://www.w3.org/2000/svg" width="440" height="200" viewBox="0 0 440 200" role="img">
  
  <defs>
    <linearGradient id="bg" x1="0" y1="0" x2="1" y2="1">
      <stop offset="0%" stop-color="#0d1117"/>
      <stop offset="60%" stop-color="#0f141b"/>
      <stop offset="100%" stop-color="#12181f"/>
    </linearGradient>
    <linearGradient id="accent" x1="0" y1="0" x2="1" y2="0">
      <stop offset="0%" stop-color="#00FF41"/>
      <stop offset="100%" stop-color="#00c530"/>
    </linearGradient>
    <radialGradient id="glow" cx="85%" cy="6%" r="55%">
      <stop offset="0%" stop-color="#00FF41" stop-opacity="0.14"/>
      <stop offset="100%" stop-color="#00FF41" stop-opacity="0"/>
    </radialGradient>
    <pattern id="grid" width="22" height="22" patternUnits="userSpaceOnUse">
      <path d="M 22 0 L 0 0 0 22" fill="none" stroke="#00FF41" stroke-opacity="0.05" stroke-width="1"/>
    </pattern>
  </defs>
  
  <path d="M 12 0 H 428 L 440 12 V 188 L 428 200 H 12 L 0 188 V 12 Z" fill="url(#bg)"/>
  <path d="M 12 0 H 428 L 440 12 V 188 L 428 200 H 12 L 0 188 V 12 Z" fill="url(#glow)"/>
  <path d="M 12 0 H 428 L 440 12 V 188 L 428 200 H 12 L 0 188 V 12 Z" fill="none" stroke="#232a33"/>
  <path d="M 12 0 H 428 L 440 12 V 188 L 428 200 H 12 L 0 188 V 12 Z" fill="none" stroke="#00FF41" stroke-opacity="0.35" stroke-width="1.4"/>
  <rect x="0" y="0" width="440" height="200" fill="url(#grid)"/>
  
  <path d="M 0 24 V 0 H 24" fill="none" stroke="#00FF41" stroke-opacity="0.65" stroke-width="2"/>
  <path d="M 416 0 H 440 V 24" fill="none" stroke="#00FF41" stroke-opacity="0.65" stroke-width="2"/>
  <path d="M 440 176 V 200 H 416" fill="none" stroke="#00FF41" stroke-opacity="0.65" stroke-width="2"/>
  <path d="M 24 200 H 0 V 176" fill="none" stroke="#00FF41" stroke-opacity="0.65" stroke-width="2"/>
      <text x="13" y="44" font-family="monospace" font-size="8" fill="#00FF41" fill-opacity="0.05">1</text>    <text x="13" y="58" font-family="monospace" font-size="8" fill="#00FF41" fill-opacity="0.085">0</text>    <text x="13" y="72" font-family="monospace" font-size="8" fill="#00FF41" fill-opacity="0.12000000000000001">1</text>    <text x="13" y="86" font-family="monospace" font-size="8" fill="#00FF41" fill-opacity="0.15500000000000003">0</text>    <text x="13" y="100" font-family="monospace" font-size="8" fill="#00FF41" fill-opacity="0.19">1</text>
      <text x="427" y="92" font-family="monospace" font-size="8" fill="#00FF41" fill-opacity="0.05">0</text>    <text x="427" y="106" font-family="monospace" font-size="8" fill="#00FF41" fill-opacity="0.085">1</text>    <text x="427" y="120" font-family="monospace" font-size="8" fill="#00FF41" fill-opacity="0.12000000000000001">0</text>    <text x="427" y="134" font-family="monospace" font-size="8" fill="#00FF41" fill-opacity="0.15500000000000003">1</text>    <text x="427" y="148" font-family="monospace" font-size="8" fill="#00FF41" fill-opacity="0.19">0</text>
  
  <path d="M 16 20 H 424" stroke="#232a33" stroke-width="1"/>
  <path d="M 24 20 H 150" stroke="#00FF41" stroke-opacity="0.8" stroke-width="2"/>
  <text x="28" y="16" font-family="'JetBrains Mono', 'Fira Code', 'Segoe UI', monospace" font-size="12" letter-spacing="2.5" font-weight="700" fill="#f0f6fc">SYSTEM_STATS</text>
  <text x="412" y="16" text-anchor="end" font-family="'JetBrains Mono', 'Fira Code', 'Segoe UI', monospace" font-size="9" letter-spacing="1.5" fill="#8b949e">gurveeer</text>
  
  <circle cx="416" cy="14" r="3" fill="#00FF41">
    <animate attributeName="opacity" values="1;0.25;1" dur="2s" repeatCount="indefinite"/>
  </circle>
  <circle cx="416" cy="14" r="7" fill="none" stroke="#00FF41" stroke-opacity="0.35">
    <animate attributeName="r" values="4;10" dur="2s" repeatCount="indefinite"/>
    <animate attributeName="opacity" values="0.5;0" dur="2s" repeatCount="indefinite"/>
  </circle>
  
    <g>
      <path d="M 28 40 H 208 L 216 48 V 90 H 28 Z" fill="#161d26" stroke="#232a33" stroke-width="1"/>
      <rect x="20" y="48" width="4" height="34" fill="url(#accent)"/>
      <text x="40" y="70" text-anchor="middle" font-family="monospace" font-size="12" fill="#00FF41">▤</text>
      <text x="56" y="60" font-family="'JetBrains Mono', 'Fira Code', 'Segoe UI', monospace" font-size="8.5" letter-spacing="1.4" fill="#8b949e">REPOSITORIES</text>
      <text x="56" y="82" font-family="'JetBrains Mono', 'Fira Code', 'Segoe UI', monospace" font-size="18" font-weight="700" fill="#f0f6fc">64</text>
      <path d="M 208 40 L 216 48" stroke="#00FF41" stroke-opacity="0.4" stroke-width="1.2"/>
    </g>
    <g>
      <path d="M 238 40 H 418 L 426 48 V 90 H 238 Z" fill="#161d26" stroke="#232a33" stroke-width="1"/>
      <rect x="230" y="48" width="4" height="34" fill="url(#accent)"/>
      <text x="250" y="70" text-anchor="middle" font-family="monospace" font-size="12" fill="#00FF41">★</text>
      <text x="266" y="60" font-family="'JetBrains Mono', 'Fira Code', 'Segoe UI', monospace" font-size="8.5" letter-spacing="1.4" fill="#8b949e">STARS EARNED</text>
      <text x="266" y="82" font-family="'JetBrains Mono', 'Fira Code', 'Segoe UI', monospace" font-size="18" font-weight="700" fill="#f0f6fc">435</text>
      <path d="M 418 40 L 426 48" stroke="#00FF41" stroke-opacity="0.4" stroke-width="1.2"/>
    </g>
    <g>
      <path d="M 28 112 H 208 L 216 120 V 162 H 28 Z" fill="#161d26" stroke="#232a33" stroke-width="1"/>
      <rect x="20" y="120" width="4" height="34" fill="url(#accent)"/>
      <text x="40" y="142" text-anchor="middle" font-family="monospace" font-size="12" fill="#00FF41">⑂</text>
      <text x="56" y="132" font-family="'JetBrains Mono', 'Fira Code', 'Segoe UI', monospace" font-size="8.5" letter-spacing="1.4" fill="#8b949e">TOTAL FORKS</text>
      <text x="56" y="154" font-family="'JetBrains Mono', 'Fira Code', 'Segoe UI', monospace" font-size="18" font-weight="700" fill="#f0f6fc">30</text>
      <path d="M 208 112 L 216 120" stroke="#00FF41" stroke-opacity="0.4" stroke-width="1.2"/>
    </g>
    <g>
      <path d="M 238 112 H 418 L 426 120 V 162 H 238 Z" fill="#161d26" stroke="#232a33" stroke-width="1"/>
      <rect x="230" y="120" width="4" height="34" fill="url(#accent)"/>
      <text x="250" y="142" text-anchor="middle" font-family="monospace" font-size="12" fill="#00FF41">●</text>
      <text x="266" y="132" font-family="'JetBrains Mono', 'Fira Code', 'Segoe UI', monospace" font-size="8.5" letter-spacing="1.4" fill="#8b949e">FOLLOWERS</text>
      <text x="266" y="154" font-family="'JetBrains Mono', 'Fira Code', 'Segoe UI', monospace" font-size="18" font-weight="700" fill="#f0f6fc">1.2k</text>
      <path d="M 418 112 L 426 120" stroke="#00FF41" stroke-opacity="0.4" stroke-width="1.2"/>
    </g>
</svg>
